/* XPM */
static char *chipsyBug[] = {
/* columns rows colors chars-per-pixel */
"32 32 205 2 ",
"   c #00004D",
".  c #00004E",
"X  c #00004F",
"o  c #02024E",
"O  c #000050",
"+  c #283E5E",
"@  c #26416A",
"#  c #294773",
"$  c #2C4975",
"%  c #2F4C76",
"&  c #2D4B78",
"*  c #3B567E",
"=  c #6C6048",
"-  c #6E644D",
";  c #59677E",
":  c #933232",
">  c #933333",
",  c #943333",
"<  c #953636",
"1  c #934D35",
"2  c #974D3D",
"3  c #935237",
"4  c #935B37",
"5  c #95513C",
"6  c #95523D",
"7  c #975B39",
"8  c #94623C",
"9  c #93663D",
"0  c #935743",
"q  c #9A5346",
"w  c #9A5248",
"e  c #9D5E4B",
"r  c #9B6543",
"t  c #807246",
"y  c #827548",
"u  c #81744B",
"i  c #9F7F43",
"p  c #9F6155",
"a  c #986757",
"s  c #95695C",
"d  c #A6795F",
"f  c #946D61",
"g  c #927066",
"h  c #95736E",
"j  c #8E7A7A",
"k  c #8F7A7A",
"l  c #8F7B7B",
"z  c #937570",
"x  c #947676",
"c  c #907979",
"v  c #917979",
"b  c #937878",
"n  c #917A7A",
"m  c #AC7976",
"M  c #978245",
"N  c #9C8246",
"B  c #90814B",
"V  c #A48A48",
"C  c #A1924A",
"Z  c #A1934E",
"A  c #A8954C",
"S  c #B0817F",
"D  c #415C87",
"F  c #42679F",
"G  c #53719E",
"H  c #687589",
"J  c #717A88",
"K  c #6D7B90",
"L  c #6F7D92",
"P  c #6F7D93",
"I  c #466CA6",
"U  c #476DA7",
"Y  c #4E76B4",
"T  c #6F809C",
"R  c #748092",
"E  c #758397",
"W  c #7B8595",
"Q  c #77869B",
"!  c #7A8699",
"~  c #79869A",
"^  c #7B879A",
"/  c #5E82BB",
"(  c #5E83BC",
")  c #6A81A3",
"_  c #6F83A1",
"`  c #6F86A9",
"'  c #7386A2",
"]  c #7587A0",
"[  c #7186A5",
"{  c #7387A7",
"}  c #7388A9",
"|  c #7991B6",
" . c #7E96BC",
".. c #7E97BC",
"X. c #87909D",
"o. c #B58A88",
"O. c #BF948D",
"+. c #B79695",
"@. c #B89696",
"#. c #B79B99",
"$. c #BE9E9E",
"%. c #AFA385",
"&. c #8190A6",
"*. c #8B95A1",
"=. c #8994A4",
"-. c #8191A9",
";. c #8293AB",
":. c #919BA9",
">. c #919DAF",
",. c #929DAE",
"<. c #969FAD",
"1. c #8198BD",
"2. c #8099BF",
"3. c #9AA0AA",
"4. c #9BA2AD",
"5. c #98A1AE",
"6. c #9FA5AE",
"7. c #9EA6B2",
"8. c #90A2BE",
"9. c #A1A3A6",
"0. c #A9A9AB",
"q. c #AAACAF",
"w. c gray68",
"e. c #AEAEAE",
"r. c #BDA3A2",
"t. c #BFA5A4",
"y. c #B7ACAC",
"u. c #B9ACAB",
"i. c #A3A8B0",
"p. c #A9AEB5",
"a. c #A9AFBA",
"s. c #AAB1BC",
"d. c #ADB3BC",
"f. c #AEB4BD",
"g. c #B2B2B2",
"h. c #B3B4B5",
"j. c #B4B4B4",
"k. c #B3B6BB",
"l. c #B2B7BF",
"z. c gray72",
"x. c #B9B9B9",
"c. c #BBBBBB",
"v. c #C6A5A2",
"b. c #C3B5B5",
"n. c #CDB5B5",
"m. c #D0B9B9",
"M. c #819BC2",
"N. c #849EC4",
"B. c #849EC6",
"V. c #899FC0",
"C. c #88A3CD",
"Z. c #9BAAC2",
"A. c #A9B3C2",
"S. c #ADB7C5",
"D. c #B2B8C0",
"F. c #B5BAC2",
"G. c #BABEC4",
"H. c #BBBFC6",
"J. c #B2BAC8",
"K. c #BEC2C8",
"L. c #C1C3C5",
"P. c #C8C2C2",
"I. c #CFC4C4",
"U. c #C3C6C9",
"Y. c #C2C7CE",
"T. c #C5C8CD",
"R. c #C6C8CD",
"E. c #C4C8CE",
"W. c #C7CACE",
"Q. c #C8C9CA",
"!. c #CFCACA",
"~. c #C9CBCF",
"^. c #CACCCF",
"/. c gray80",
"(. c #CDCDCD",
"). c #CECECE",
"_. c #D1C1C0",
"`. c #C8CCD0",
"'. c #C9CCD0",
"]. c #CACCD0",
"[. c #CCCED1",
"{. c #CFCFD2",
"}. c #CFD0D3",
"|. c #CFD1D3",
" X c #CFD1D5",
".X c #D0D0D0",
"XX c gray82",
"oX c #D1D3D4",
"OX c #D2D2D4",
"+X c #D3D5D6",
"@X c gray83",
"#X c #D4D5D7",
"$X c #D6D7D8",
"%X c #D8D8D8",
"&X c #D8D9D9",
"*X c #D9D9DA",
"=X c #D9DADB",
"-X c #DADADA",
";X c #DADADB",
":X c #DADBDB",
">X c gray86",
",X c #DBDBDC",
"<X c gainsboro",
"1X c #DDDDDD",
"2X c None",
/* pixels */
"2X2X2X2X2X2X2X2X2X2X2X2X2X2X2X2X2X2X2X2X2X2X2X2X2XX 2X2X2X2X2X2X",
"2X2X2X2X2X2X2XX 2X2X2X2X2X2X2X2X2X2X2X2X2X2X2X2X2X2X2X2X2X2X2X2X",
"2X2X2X2X2X2X2XX 2X2X2X2X2X2X2X2X2X2X2X2X2X2XX 2X2X2X2X2X2X2X2X2X",
"2X2X2X2X2X2X2X2X2XX 2X2X2X2X2X2X2X2X2X2X2X2X2X2XX 2X2X2X2X2X2X2X",
"2X2X2X2XX 2X2X2X2X2X2X2X2X2X2X2X2X2X2X2X2X2XX 2XX 2X2X2X2X2X2X2X",
"2X2X2X2X2X2X2X2X2X2X2X2X2X2X2X2X2X2X2X2X2X2X2XX 2X2X2XX 2X2X2X2X",
"2X2X2X2X2XX 2X2XX - 2X4 , < , : : : : 1 7 N 2X2X2X2X2X2X2X2X2X2X",
"2X2X2XX 2X2X2X2XM 6 o.I.=X1X=X#X)./././.b.S 2 N 2X2X2X2X2X2X2X2X",
"2X2X2X2X2X2X2X2Xq !.-X1X1X1X1XE.`.)././././.P.q A 2XX 2X2XX 2X2X",
"2X2X2X2X2X2X2Xr u.-X1X1X1X1Xs.B.M.U.)././././.y.0 2X2X2X2X2X2X2X",
"2X2X2X2XX X B f j.-X1X1X1X1X5.} { G.)././././.w.g y 2X2X2X2X2X2X",
"2X2X2X2X2X2X2Xx z.1X1X1X|.=X+X7.d.].;.>./././.w.b 2X2X2X2X2X2X2X",
"2X2X2X2X2X2X2Xn z.1X1XF.N.V.=X1X1X&./ U 4././.w.n 2X2X2X2X2X2X2X",
"2X2X2X2X2X2X2Xn z.1X1Xa.' ' $X1X1X! D $ 3.)./.w.n 2X2X2X2X2X2X2X",
"2X2X2X2X2X2X2Xn z.R.`.:XF.`.+XS.Y./.L X.=.G ) 9.j 2X2X2X2X2X2X2X",
"2X2X2X2X2X2X2Xn q.| N.|.1X1X>.C.1.XX@XL.% Y I H j 2X2X2X2X2X2X2X",
"2X2X2X2X2X2X2Xn j.P Q -X1X1X:._ P  XOXR.+ & # J j 2X2X2X2X2X2X2X",
"2X2X2X2X2X2X2Xn z.=X=X=XA.J.-XD.'.K.` -.i.; W 0.j 2X2X2X2X2X2X2X",
"2X2X2X2X2X2X2Xn z.1X1Xf. ...R.1X1X] ( F 6././.w.l 2X2X2X2XX 2XX ",
"2X2X2X2X2X2X2Xn z.1X1X`.P ! -X1X1X! * @ k././.w.n 2X2X2X2XX 2X2X",
"2X2X2X2X2X2XC h z.1X1X1X:X1X`.8.Z.OX*.p./././.w.z u 2X2X2X2X2X2X",
"X 2X2XX 2X2Xt a c.1X1X1X1X1X<. . .D.)./././.!.g.s 2X2X2X2X2X2X2X",
"2X2X2X2X2X2X2X9 t.1X1X1X1X1XK.K E OX)././././.#.8 2X2X2XX 2X2X2X",
"2X2XX 2X2X2X2X2Xe _.1X1X1X1X1X-X=X-X)./././.r.6 2XX 2X2X2X2X2X2X",
"2X2X2X2X2X2X2X2X2Xd O.v.m.m.m.m.n.$.@.+.m p 3 Z 2X2X2X2XX 2X2X2X",
"2X2X2X2X2X2X2X2X2X2X2X%.2X2X2X2X2X2X2X2XV = 2X2X2XO 2X2X2X2X2X2X",
"2X2X2X2XX 2X2X2X2X2X2X2X2X2X2X2X2X2X2X2X2X2X2XX 2X2X2X2X2X2X2X2X",
"2X2X2X2X2X2X2X2X2XX 2X2X2X2X2X2X2X2X2X2X2X2X2X2X2X2X2X2X2X2X2X2X",
"2X2X2X2X2X2X2XX 2X2X2X2X2X2X2X2X2X2X2X2X2X2X2X2X2X2X2X2X2X2X2X2X",
"2X2X2X2X2X2X2X2X2XX 2X2X2X2X2X2X2X2X2X2X2X2X2XX 2X2X2X2X2X2X2X2X",
"2X2X2X2X2X2X2X2XX 2X2X2X2X2X2X2X2X2X2X2X2X2X2X2X2X2X2X2X2X2X2X2X",
"2X2X2X2X2X2XO 2X2X2X2X2XO 2X2X2X2X2X2X2X2X2X2X2X2X2X2X2X2X2X2X2X"
};
